<svg width="834" height="847" viewBox="0 0 834 847" fill="none" xmlns="http://www.w3.org/2000/svg">
<path d="M336.019 353.059L76.4801 267.625C67.6574 264.72 57.937 268.688 54.6731 277.386C41.6138 312.188 40.0139 351.837 39.688 378.25C39.5541 389.105 48.6566 397.952 59.5039 397.543L305.69 388.276C309.315 388.139 313.029 388.923 315.754 391.318C324.992 399.438 323.072 409.467 319.675 415.709C318.502 417.864 316.547 419.436 314.41 420.643L49.0056 570.528C40.5139 575.324 37.0933 585.85 41.3655 594.614C59.5135 631.843 76.5303 658.693 88.2682 674.851C94.4224 683.322 106.322 683.776 113.876 676.519L355.082 444.8C356.169 443.757 357.148 442.567 357.924 441.276C383.528 398.714 357.772 366.844 339.911 354.908C338.71 354.105 337.391 353.51 336.019 353.059Z" fill="#205EFF"/>
<path d="M497.051 493.127L756.59 578.561C765.412 581.466 775.133 577.498 778.397 568.8C791.456 533.998 793.056 494.349 793.382 467.936C793.516 457.081 784.413 448.234 773.566 448.642L527.38 457.91C523.755 458.047 520.04 457.263 517.316 454.868C508.078 446.747 509.997 436.718 513.394 430.477C514.568 428.321 516.522 426.75 518.66 425.543L784.064 275.658C792.556 270.862 795.976 260.336 791.704 251.572C773.556 214.342 756.539 187.493 744.802 171.335C738.647 162.864 726.747 162.41 719.194 169.667L477.987 401.386C476.901 402.429 475.922 403.619 475.146 404.91C449.542 447.472 475.298 479.342 493.159 491.278C494.36 492.08 495.679 492.676 497.051 493.127Z" fill="#205EFF"/>
<path d="M350.272 504.303L264.755 763.875C261.848 772.699 265.812 782.418 274.509 785.68C309.306 798.728 348.953 800.315 375.366 800.632C386.22 800.762 395.07 791.657 394.665 780.809L385.478 534.621C385.343 530.996 386.128 527.281 388.524 524.556C396.647 515.315 406.675 517.231 412.915 520.626C415.071 521.799 416.642 523.753 417.848 525.89L567.643 791.251C572.436 799.741 582.961 803.159 591.726 798.884C628.96 780.723 655.815 763.697 671.976 751.954C680.45 745.796 680.907 733.896 673.653 726.345L442.018 485.209C440.975 484.123 439.785 483.144 438.495 482.369C395.942 456.778 364.065 482.545 352.122 500.411C351.32 501.611 350.724 502.931 350.272 504.303Z" fill="#205EFF"/>
<path d="M485.552 340.681L571.069 81.1083C573.976 72.2844 570.011 62.5652 561.314 59.304C526.517 46.2558 486.87 44.669 460.457 44.3517C449.603 44.2213 440.753 53.3269 441.158 64.1743L450.345 310.362C450.48 313.988 449.695 317.702 447.3 320.427C439.176 329.669 429.148 327.752 422.908 324.357C420.753 323.185 419.182 321.23 417.975 319.094L268.181 53.7325C263.388 45.2422 252.863 41.8249 244.097 46.1C206.863 64.2607 180.008 81.2866 163.847 93.03C155.374 99.1872 154.916 111.087 162.17 118.639L393.805 359.775C394.848 360.86 396.038 361.839 397.328 362.615C439.881 388.205 471.759 362.438 483.701 344.573C484.504 343.372 485.1 342.052 485.552 340.681Z" fill="#205EFF"/>
<path d="M336.019 353.059L76.4801 267.625C67.6574 264.72 57.937 268.688 54.6731 277.386C41.6138 312.188 40.0139 351.837 39.688 378.25C39.5541 389.105 48.6566 397.952 59.5039 397.543L305.69 388.276C309.315 388.139 313.029 388.923 315.754 391.318C324.992 399.438 323.072 409.467 319.675 415.709C318.502 417.864 316.547 419.436 314.41 420.643L49.0056 570.528C40.5139 575.324 37.0933 585.85 41.3655 594.614C59.5135 631.843 76.5303 658.693 88.2682 674.851C94.4224 683.322 106.322 683.776 113.876 676.519L355.082 444.8C356.169 443.757 357.148 442.567 357.924 441.276C383.528 398.714 357.772 366.844 339.911 354.908C338.71 354.105 337.391 353.51 336.019 353.059Z" stroke="#205EFF" stroke-width="3"/>
<path d="M497.051 493.127L756.59 578.561C765.412 581.466 775.133 577.498 778.397 568.8C791.456 533.998 793.056 494.349 793.382 467.936C793.516 457.081 784.413 448.234 773.566 448.642L527.38 457.91C523.755 458.047 520.04 457.263 517.316 454.868C508.078 446.747 509.997 436.718 513.394 430.477C514.568 428.321 516.522 426.75 518.66 425.543L784.064 275.658C792.556 270.862 795.976 260.336 791.704 251.572C773.556 214.342 756.539 187.493 744.802 171.335C738.647 162.864 726.747 162.41 719.194 169.667L477.987 401.386C476.901 402.429 475.922 403.619 475.146 404.91C449.542 447.472 475.298 479.342 493.159 491.278C494.36 492.08 495.679 492.676 497.051 493.127Z" stroke="#205EFF" stroke-width="3"/>
<path d="M350.272 504.303L264.755 763.875C261.848 772.699 265.812 782.418 274.509 785.68C309.306 798.728 348.953 800.315 375.366 800.632C386.22 800.762 395.07 791.657 394.665 780.809L385.478 534.621C385.343 530.996 386.128 527.281 388.524 524.556C396.647 515.315 406.675 517.231 412.915 520.626C415.071 521.799 416.642 523.753 417.848 525.89L567.643 791.251C572.436 799.741 582.961 803.159 591.726 798.884C628.96 780.723 655.815 763.697 671.976 751.954C680.45 745.796 680.907 733.896 673.653 726.345L442.018 485.209C440.975 484.123 439.785 483.144 438.495 482.369C395.942 456.778 364.065 482.545 352.122 500.411C351.32 501.611 350.724 502.931 350.272 504.303Z" stroke="#205EFF" stroke-width="3"/>
<path d="M485.552 340.681L571.069 81.1083C573.976 72.2844 570.011 62.5652 561.314 59.304C526.517 46.2558 486.87 44.669 460.457 44.3517C449.603 44.2213 440.753 53.3269 441.158 64.1743L450.345 310.362C450.48 313.988 449.695 317.702 447.3 320.427C439.176 329.669 429.148 327.752 422.908 324.357C420.753 323.185 419.182 321.23 417.975 319.094L268.181 53.7325C263.388 45.2422 252.863 41.8249 244.097 46.1C206.863 64.2607 180.008 81.2866 163.847 93.03C155.374 99.1872 154.916 111.087 162.17 118.639L393.805 359.775C394.848 360.86 396.038 361.839 397.328 362.615C439.881 388.205 471.759 362.438 483.701 344.573C484.504 343.372 485.1 342.052 485.552 340.681Z" stroke="#205EFF" stroke-width="3"/>
</svg>
